<?xml version="1.0" encoding="UTF-8" standalone="no"?><!DOCTYPE svg PUBLIC "-//W3C//DTD SVG 1.1//EN" "http://www.w3.org/Graphics/SVG/1.1/DTD/svg11.dtd"><svg width="100%" height="100%" viewBox="0 0 417 417" version="1.1" xmlns="http://www.w3.org/2000/svg" xmlns:xlink="http://www.w3.org/1999/xlink" xml:space="preserve" xmlns:serif="http://www.serif.com/" style="fill-rule:evenodd;clip-rule:evenodd;stroke-linejoin:round;stroke-miterlimit:2;"><path d="M270.468,109.649c20.186,0 36.55,16.364 36.55,36.55c-0,9.693 -3.851,18.99 -10.706,25.844c-6.854,6.855 -16.151,10.706 -25.844,10.706c-33.12,-0 -82.911,-0 -124.178,-0c-40.355,-0.001 -73.076,32.702 -73.099,73.057c-0.024,41.316 -0.052,91.182 -0.071,124.332c-0.011,20.177 -16.372,36.529 -36.549,36.529c-0.007,-0 -0.014,-0 -0.021,-0c-20.186,-0 -36.55,-16.364 -36.55,-36.55c0,-31.182 0,-78.166 0,-124.269c0,-80.743 65.455,-146.199 146.199,-146.199l124.269,0Zm-0,-109.649c38.774,-0 75.96,15.403 103.378,42.821c27.418,27.417 42.821,64.603 42.821,103.378c-0,-0 -0,-0 -0,-0c-0,80.743 -65.456,146.199 -146.199,146.199c-46.103,-0 -93.088,-0 -124.269,-0c-20.186,-0 -36.55,-16.364 -36.55,-36.55c0,-20.186 16.364,-36.55 36.55,-36.55c33.139,0 82.97,0 124.269,0c19.387,0 37.98,-7.701 51.689,-21.41c13.709,-13.709 21.41,-32.302 21.41,-51.689c0,-0 0,-0 0,-0c0,-19.387 -7.701,-37.981 -21.41,-51.689c-13.709,-13.709 -32.302,-21.411 -51.689,-21.411c-71.808,0 -178.429,0 -233.918,0c-20.186,0 -36.55,-16.363 -36.55,-36.549c0,-20.186 16.364,-36.55 36.55,-36.55c51.999,0 150.307,0 233.918,0Z" style="fill:url(#_Linear1);"/><defs><linearGradient id="_Linear1" x1="0" y1="0" x2="1" y2="0" gradientUnits="userSpaceOnUse" gradientTransform="matrix(643.408,0,0,555.556,-182.749,233.918)"><stop offset="0" style="stop-color:#0cf;stop-opacity:1"/><stop offset="0.57" style="stop-color:#1cd2e6;stop-opacity:1"/><stop offset="0.8" style="stop-color:#58deb1;stop-opacity:1"/><stop offset="1" style="stop-color:#91e97e;stop-opacity:1"/></linearGradient></defs></svg>