<?xml version="1.0" encoding="UTF-8" standalone="no"?><!DOCTYPE svg PUBLIC "-//W3C//DTD SVG 1.1//EN" "http://www.w3.org/Graphics/SVG/1.1/DTD/svg11.dtd"><svg width="100%" height="100%" viewBox="0 0 6684 990" version="1.1" xmlns="http://www.w3.org/2000/svg" xmlns:xlink="http://www.w3.org/1999/xlink" xml:space="preserve" xmlns:serif="http://www.serif.com/" style="fill-rule:evenodd;clip-rule:evenodd;stroke-linejoin:round;stroke-miterlimit:2;"><g><path d="M1310.13,897.333c0,24.23 -8.85,44.496 -26.554,60.8c-17.704,16.309 -38.204,24.463 -61.5,24.463c-26.092,-0 -47.058,-8.154 -62.896,-24.463c-15.842,-16.304 -23.762,-36.57 -23.762,-60.8l-0,-807.879c-0,-24.229 8.387,-44.496 25.158,-60.8c16.775,-16.308 38.204,-24.462 64.296,-24.462c22.362,-0 42.162,8.154 59.404,24.462c17.237,16.304 25.854,36.571 25.854,60.8l0,807.879Z" style="fill:url(#_Linear1);fill-rule:nonzero;"/><path d="M2143.17,2.796c21.429,-0 39.833,8.387 55.208,25.158c15.375,16.771 23.063,34.479 23.063,53.113c-0,17.704 -6.054,34.479 -18.171,50.316l-280.942,370.396l-95.042,-129.987l247.396,-328.463c19.567,-27.021 42.396,-40.533 68.488,-40.533Zm-623.384,-2.796c27.025,0 49.855,12.113 68.488,36.342l614.996,817.662c11.183,14.909 16.775,32.15 16.775,51.717c-0,26.092 -9.321,46.592 -27.954,61.5c-18.638,14.908 -37.275,22.362 -55.909,22.362c-27.025,0 -49.854,-12.112 -68.491,-36.341l-614.992,-817.663c-12.117,-14.908 -18.171,-31.683 -18.171,-50.316c0,-24.23 9.084,-44.496 27.254,-60.805c18.171,-16.304 37.505,-24.458 58.005,-24.458Zm-12.58,989.583c-20.5,0 -38.204,-7.687 -53.112,-23.062c-14.908,-15.375 -22.363,-32.379 -22.363,-51.017c0,-20.5 6.988,-39.6 20.967,-57.304l283.733,-384.375l92.25,135.579l-251.587,341.042c-18.638,26.091 -41.934,39.137 -69.888,39.137Z" style="fill:url(#_Linear2);fill-rule:nonzero;"/><path d="M2399.54,4.192l468.233,-0c24.229,-0 44.496,7.687 60.8,23.062c16.308,15.375 24.462,35.179 24.462,59.404c0,23.296 -8.154,42.163 -24.462,56.609c-16.304,14.441 -36.571,21.662 -60.8,21.662l-391.358,0l12.579,-23.758l-0,272.554l-11.184,-11.183l327.067,-0c24.225,-0 44.492,7.687 60.8,23.062c16.308,15.375 24.458,35.175 24.458,59.404c0,23.296 -8.15,42.163 -24.458,56.609c-16.308,14.441 -36.575,21.662 -60.8,21.662l-322.875,0l6.992,-11.179l-0,282.338l-11.184,-12.58l389.963,0c24.229,0 44.496,8.154 60.8,24.459c16.308,16.308 24.462,35.175 24.462,56.608c0,23.296 -8.154,42.396 -24.462,57.308c-16.304,14.909 -36.571,22.363 -60.8,22.363l-468.233,-0c-24.229,-0 -44.496,-8.154 -60.8,-24.463c-16.309,-16.304 -24.463,-36.57 -24.463,-60.8l0,-807.879c0,-24.229 8.154,-44.496 24.463,-60.8c16.304,-16.308 36.571,-24.462 60.8,-24.462Z" style="fill:url(#_Linear3);fill-rule:nonzero;"/><path d="M3646.3,819.063c24.225,-0 44.496,7.687 60.8,23.062c16.309,15.375 24.463,35.175 24.463,59.404c-0,23.292 -8.155,42.629 -24.463,58.004c-16.304,15.375 -36.575,23.063 -60.8,23.063l-454.258,-0c-24.225,-0 -44.492,-8.154 -60.8,-24.463c-16.308,-16.304 -24.458,-36.571 -24.458,-60.8l-0,-807.879c-0,-24.229 8.383,-44.496 25.158,-60.8c16.771,-16.308 38.204,-24.462 64.292,-24.462c22.366,-0 42.166,8.154 59.404,24.462c17.237,16.304 25.858,36.571 25.858,60.8l0,753.371l-30.75,-23.763l395.554,0Z" style="fill:url(#_Linear4);fill-rule:nonzero;"/><path d="M4279.62,982.596c-68.85,-0 -133.171,-12.683 -192.963,-38.05c-59.787,-25.367 -112.333,-60.471 -157.629,-105.313c-45.296,-44.846 -80.854,-96.708 -106.675,-155.596c-25.816,-58.883 -38.725,-122.3 -38.725,-190.241c0,-67.946 12.909,-131.363 38.725,-190.246c25.821,-58.888 61.38,-110.75 106.675,-155.596c45.296,-44.842 97.842,-79.946 157.63,-105.312c59.791,-25.367 124.112,-38.05 192.962,-38.05c42.579,-0 83.8,4.529 123.663,13.591c39.858,9.059 76.55,22.646 110.066,40.767c13.592,7.246 23.784,16.983 30.575,29.217c6.796,12.229 10.192,24.683 10.192,37.366c-0,21.742 -7.246,41.221 -21.742,58.434c-14.492,17.212 -33.066,25.82 -55.712,25.82c-7.25,0 -14.721,-0.908 -22.421,-2.72c-7.7,-1.813 -15.175,-4.53 -22.425,-8.155c-22.646,-9.962 -46.654,-17.662 -72.021,-23.1c-25.367,-5.433 -52.088,-8.154 -80.175,-8.154c-58.883,0 -112.558,14.725 -161.025,44.167c-48.471,29.442 -86.971,68.85 -115.508,118.221c-28.538,49.375 -42.805,103.958 -42.805,163.75c0,58.883 14.267,113.237 42.805,163.066c28.537,49.825 67.037,89.459 115.508,118.9c48.467,29.446 102.142,44.167 161.025,44.167c27.179,0 57.075,-2.721 89.688,-8.154c32.612,-5.438 59.337,-12.683 80.175,-21.742l-12.23,40.767l0,-232.371l23.1,20.383l-150.837,0c-23.554,0 -43.258,-7.7 -59.109,-23.1c-15.854,-15.404 -23.783,-34.879 -23.783,-58.433c0,-23.554 7.929,-43.033 23.784,-58.433c15.85,-15.4 35.554,-23.1 59.108,-23.1l222.858,-0c23.554,-0 43.034,7.925 58.434,23.779c15.4,15.854 23.1,35.558 23.1,59.112l-0,288.084c-0,18.121 -4.3,33.066 -12.909,44.846c-8.604,11.775 -18.346,21.287 -29.216,28.537c-41.671,25.363 -87.196,45.521 -136.567,60.471c-49.375,14.946 -101.238,22.421 -155.596,22.421Z" style="fill:url(#_Linear5);fill-rule:nonzero;"/><path d="M5683.54,493.396c-0,67.942 -11.321,131.358 -33.971,190.242c-22.65,58.887 -54.583,110.75 -95.8,155.595c-41.221,44.842 -90.142,79.946 -146.763,105.313c-56.62,25.366 -118.45,38.05 -185.487,38.05c-67.038,-0 -128.642,-12.683 -184.809,-38.05c-56.17,-25.367 -104.862,-60.471 -146.083,-105.313c-41.216,-44.846 -73.154,-96.708 -95.8,-155.596c-22.65,-58.883 -33.975,-122.3 -33.975,-190.241c0,-67.946 11.325,-131.363 33.975,-190.246c22.646,-58.888 54.584,-110.75 95.8,-155.596c41.221,-44.842 89.913,-79.946 146.083,-105.312c56.167,-25.367 117.771,-38.05 184.809,-38.05c67.037,-0 128.867,12.683 185.487,38.05c56.621,25.366 105.542,60.47 146.763,105.312c41.217,44.846 73.15,96.708 95.8,155.596c22.65,58.883 33.971,122.3 33.971,190.246Zm-176.654,-0c-0,-60.7 -12.23,-115.733 -36.692,-165.108c-24.458,-49.371 -57.979,-88.555 -100.558,-117.542c-42.575,-28.992 -91.95,-43.488 -148.117,-43.488c-56.167,0 -105.542,14.496 -148.121,43.488c-42.579,28.987 -75.871,67.942 -99.879,116.862c-24.004,48.921 -36.008,104.184 -36.008,165.788c-0,60.696 12.004,115.729 36.008,165.104c24.008,49.371 57.3,88.554 99.879,117.542c42.579,28.991 91.954,43.487 148.121,43.487c56.167,0 105.542,-14.496 148.117,-43.487c42.579,-28.988 76.1,-68.171 100.558,-117.542c24.462,-49.375 36.692,-104.408 36.692,-165.104Z" style="fill:url(#_Linear6);fill-rule:nonzero;"/><path d="M6608.08,4.192c22.363,-0 40.534,7.454 54.509,22.366c13.979,14.909 20.966,33.542 20.966,55.909l0,814.866c0,24.23 -8.154,44.496 -24.458,60.8c-16.308,16.309 -36.575,24.463 -60.8,24.463c-12.117,-0 -24.463,-2.096 -37.042,-6.292c-12.579,-4.191 -22.129,-10.016 -28.654,-17.471l-549.3,-697.458l36.338,-22.367l-0,665.313c-0,22.367 -7.221,41 -21.663,55.912c-14.441,14.909 -33.312,22.363 -56.608,22.363c-22.363,-0 -40.534,-7.454 -54.509,-22.363c-13.979,-14.912 -20.966,-33.545 -20.966,-55.912l-0,-814.867c-0,-24.229 8.154,-44.496 24.458,-60.8c16.309,-16.308 36.575,-24.462 60.8,-24.462c13.046,-0 26.559,2.562 40.534,7.687c13.979,5.125 24.229,12.813 30.75,23.063l532.533,679.291l-23.763,16.771l0,-648.537c0,-22.367 6.988,-41 20.967,-55.909c13.975,-14.912 32.613,-22.366 55.908,-22.366Z" style="fill:url(#_Linear7);fill-rule:nonzero;"/><path d="M642.363,260.417c47.941,-0 86.804,38.862 86.804,86.804c-0,23.025 -9.146,45.104 -25.425,61.383c-16.28,16.279 -38.359,25.425 -61.38,25.425l-294.92,0c-95.846,0 -173.559,77.667 -173.613,173.513c-0.058,98.125 -0.125,216.554 -0.167,295.287c-0.029,47.921 -38.883,86.754 -86.808,86.754l-0.05,0c-47.942,0 -86.804,-38.862 -86.804,-86.804l-0,-295.142c-0,-191.762 155.458,-347.22 347.221,-347.22l295.142,-0Zm-0,-260.417c92.087,-0 180.404,36.583 245.52,101.7c65.117,65.117 101.7,153.433 101.7,245.521c0,191.766 -155.458,347.225 -347.221,347.225l-295.141,-0c-47.942,-0 -86.804,-38.867 -86.804,-86.809c-0,-47.941 38.862,-86.804 86.804,-86.804l295.142,0c46.041,0 90.199,-18.291 122.758,-50.85c32.558,-32.558 50.85,-76.716 50.85,-122.762c-0,-46.042 -18.292,-90.2 -50.85,-122.759c-32.559,-32.558 -76.717,-50.85 -122.759,-50.85l-555.558,0c-47.942,0 -86.804,-38.866 -86.804,-86.808c-0,-47.942 38.862,-86.804 86.804,-86.804l555.559,-0Z" style="fill:url(#_Linear8);"/></g><defs><linearGradient id="_Linear1" x1="0" y1="0" x2="1" y2="0" gradientUnits="userSpaceOnUse" gradientTransform="matrix(6756.33,0,0,6756.33,-4141.22,1172.69)"><stop offset="0" style="stop-color:#0cf;stop-opacity:1"/><stop offset="0.57" style="stop-color:#1cd2e6;stop-opacity:1"/><stop offset="0.8" style="stop-color:#58deb1;stop-opacity:1"/><stop offset="1" style="stop-color:#91e97e;stop-opacity:1"/></linearGradient><linearGradient id="_Linear2" x1="0" y1="0" x2="1" y2="0" gradientUnits="userSpaceOnUse" gradientTransform="matrix(6756.33,0,0,6756.33,-4141.22,1172.69)"><stop offset="0" style="stop-color:#0cf;stop-opacity:1"/><stop offset="0.57" style="stop-color:#1cd2e6;stop-opacity:1"/><stop offset="0.8" style="stop-color:#58deb1;stop-opacity:1"/><stop offset="1" style="stop-color:#91e97e;stop-opacity:1"/></linearGradient><linearGradient id="_Linear3" x1="0" y1="0" x2="1" y2="0" gradientUnits="userSpaceOnUse" gradientTransform="matrix(6756.33,0,0,6756.33,-4123.86,1172.69)"><stop offset="0" style="stop-color:#0cf;stop-opacity:1"/><stop offset="0.57" style="stop-color:#1cd2e6;stop-opacity:1"/><stop offset="0.8" style="stop-color:#58deb1;stop-opacity:1"/><stop offset="1" style="stop-color:#91e97e;stop-opacity:1"/></linearGradient><linearGradient id="_Linear4" x1="0" y1="0" x2="1" y2="0" gradientUnits="userSpaceOnUse" gradientTransform="matrix(6756.33,0,0,6756.33,-4123.86,1172.69)"><stop offset="0" style="stop-color:#0cf;stop-opacity:1"/><stop offset="0.57" style="stop-color:#1cd2e6;stop-opacity:1"/><stop offset="0.8" style="stop-color:#58deb1;stop-opacity:1"/><stop offset="1" style="stop-color:#91e97e;stop-opacity:1"/></linearGradient><linearGradient id="_Linear5" x1="0" y1="0" x2="1" y2="0" gradientUnits="userSpaceOnUse" gradientTransform="matrix(6568.67,0,0,6568.67,-3894.33,1153.82)"><stop offset="0" style="stop-color:#0cf;stop-opacity:1"/><stop offset="0.57" style="stop-color:#1cd2e6;stop-opacity:1"/><stop offset="0.8" style="stop-color:#58deb1;stop-opacity:1"/><stop offset="1" style="stop-color:#91e97e;stop-opacity:1"/></linearGradient><linearGradient id="_Linear6" x1="0" y1="0" x2="1" y2="0" gradientUnits="userSpaceOnUse" gradientTransform="matrix(6568.67,0,0,6568.67,-3860.18,1153.82)"><stop offset="0" style="stop-color:#0cf;stop-opacity:1"/><stop offset="0.57" style="stop-color:#1cd2e6;stop-opacity:1"/><stop offset="0.8" style="stop-color:#58deb1;stop-opacity:1"/><stop offset="1" style="stop-color:#91e97e;stop-opacity:1"/></linearGradient><linearGradient id="_Linear7" x1="0" y1="0" x2="1" y2="0" gradientUnits="userSpaceOnUse" gradientTransform="matrix(6756.33,0,0,6756.33,-4123.86,1172.69)"><stop offset="0" style="stop-color:#0cf;stop-opacity:1"/><stop offset="0.57" style="stop-color:#1cd2e6;stop-opacity:1"/><stop offset="0.8" style="stop-color:#58deb1;stop-opacity:1"/><stop offset="1" style="stop-color:#91e97e;stop-opacity:1"/></linearGradient><linearGradient id="_Linear8" x1="0" y1="0" x2="1" y2="0" gradientUnits="userSpaceOnUse" gradientTransform="matrix(1528.1,0,0,1528.1,-434.029,555.554)"><stop offset="0" style="stop-color:#0cf;stop-opacity:1"/><stop offset="0.57" style="stop-color:#1cd2e6;stop-opacity:1"/><stop offset="0.8" style="stop-color:#58deb1;stop-opacity:1"/><stop offset="1" style="stop-color:#91e97e;stop-opacity:1"/></linearGradient></defs></svg>