<?xml version="1.0" encoding="UTF-8" standalone="no"?><!DOCTYPE svg PUBLIC "-//W3C//DTD SVG 1.1//EN" "http://www.w3.org/Graphics/SVG/1.1/DTD/svg11.dtd"><svg width="100%" height="100%" viewBox="0 0 100 100" version="1.1" xmlns="http://www.w3.org/2000/svg" xmlns:xlink="http://www.w3.org/1999/xlink" xml:space="preserve" xmlns:serif="http://www.serif.com/" style="fill-rule:evenodd;clip-rule:evenodd;stroke-linecap:round;stroke-linejoin:round;"><path d="M90.625,28.125l0,43.75c0,2.486 -0.988,4.871 -2.746,6.629c-1.758,1.758 -4.143,2.746 -6.629,2.746l-62.5,0c-2.486,0 -4.871,-0.988 -6.629,-2.746c-1.758,-1.758 -2.746,-4.143 -2.746,-6.629l0,-43.75m81.25,0c0,-2.486 -0.988,-4.871 -2.746,-6.629c-1.758,-1.758 -4.143,-2.746 -6.629,-2.746l-62.5,0c-2.486,0 -4.871,0.988 -6.629,2.746c-1.758,1.758 -2.746,4.143 -2.746,6.629m81.25,0l0,1.013c0,1.6 -0.41,3.174 -1.19,4.572c-0.78,1.397 -1.905,2.571 -3.268,3.411l-31.25,19.229c-1.479,0.91 -3.181,1.393 -4.917,1.393c-1.736,-0 -3.438,-0.483 -4.917,-1.393l-31.25,-19.225c-1.362,-0.839 -2.488,-2.014 -3.268,-3.411c-0.781,-1.398 -1.19,-2.972 -1.19,-4.572l0,-1.017" style="fill:none;fill-rule:nonzero;stroke:#151c24;stroke-width:6.25px;"/></svg>