<?xml version="1.0" encoding="UTF-8" standalone="no"?><!DOCTYPE svg PUBLIC "-//W3C//DTD SVG 1.1//EN" "http://www.w3.org/Graphics/SVG/1.1/DTD/svg11.dtd"><svg width="100%" height="100%" viewBox="0 0 2667 2667" version="1.1" xmlns="http://www.w3.org/2000/svg" xmlns:xlink="http://www.w3.org/1999/xlink" xml:space="preserve" xmlns:serif="http://www.serif.com/" style="fill-rule:evenodd;clip-rule:evenodd;stroke-linejoin:round;stroke-miterlimit:2;"><g id="path1226"><path d="M891.934,2126.86c-0,10.753 -12.366,19.355 -27.957,19.355c-17.742,1.613 -30.108,-6.989 -30.108,-19.355c0,-10.752 12.366,-19.354 27.957,-19.354c16.129,-1.613 30.108,6.989 30.108,19.354Zm-167.204,-24.193c-3.764,10.753 6.989,23.118 23.118,26.344c13.978,5.376 30.107,-0 33.333,-10.753c3.226,-10.752 -6.989,-23.118 -23.118,-27.957c-13.978,-3.763 -29.57,1.613 -33.333,12.366Zm237.634,-9.14c-15.592,3.764 -26.344,13.979 -24.731,26.344c1.612,10.753 15.591,17.742 31.72,13.979c15.591,-3.764 26.344,-13.979 24.731,-24.731c-1.613,-10.215 -16.129,-17.205 -31.72,-15.592Zm353.762,-2060.21c-745.697,0 -1316.13,566.128 -1316.13,1311.83c0,596.235 375.268,1106.45 911.289,1286.02c68.817,12.365 93.01,-30.108 93.01,-65.054c0,-33.333 -1.613,-217.204 -1.613,-330.107c0,0 -376.343,80.645 -455.375,-160.215c-0,0 -61.29,-156.451 -149.462,-196.774c-0,0 -123.118,-84.408 8.602,-82.795c-0,-0 133.871,10.753 207.526,138.709c117.742,207.527 315.053,147.85 391.935,112.366c12.366,-86.022 47.312,-145.699 86.021,-181.183c-300.537,-33.333 -603.762,-76.881 -603.762,-594.085c0,-147.849 40.86,-222.042 126.882,-316.666c-13.979,-34.946 -59.678,-179.031 13.978,-365.053c112.365,-34.946 370.967,145.161 370.967,145.161c107.527,-30.107 223.118,-45.698 337.634,-45.698c114.516,-0 230.107,15.591 337.633,45.698c0,0 258.602,-180.644 370.967,-145.161c73.656,186.559 27.957,330.107 13.979,365.053c86.021,95.162 138.709,169.355 138.709,316.666c0,518.817 -316.666,560.214 -617.203,594.085c49.463,42.473 91.398,123.118 91.398,249.462c-0,181.183 -1.613,405.376 -1.613,449.462c0,34.946 24.731,77.419 93.011,65.053c537.633,-178.494 902.148,-688.708 902.148,-1284.94c0,-745.698 -604.837,-1311.83 -1350.54,-1311.83Zm-793.546,1854.3c-6.99,5.376 -5.377,17.742 3.763,27.957c8.602,8.602 20.968,12.365 27.957,5.376c6.989,-5.376 5.376,-17.742 -3.763,-27.957c-8.603,-8.602 -20.968,-12.366 -27.957,-5.376Zm-58.065,-43.549c-3.763,6.99 1.613,15.592 12.366,20.968c8.602,5.376 19.355,3.763 23.118,-3.763c3.763,-6.99 -1.613,-15.592 -12.366,-20.968c-10.752,-3.226 -19.354,-1.613 -23.118,3.763Zm174.193,191.398c-8.602,6.989 -5.376,23.118 6.99,33.333c12.365,12.366 27.957,13.979 34.946,5.376c6.989,-6.989 3.763,-23.118 -6.989,-33.333c-11.828,-12.365 -27.957,-13.978 -34.947,-5.376Zm-61.29,-79.032c-8.602,5.376 -8.602,19.354 0,31.72c8.602,12.366 23.118,17.742 30.108,12.366c8.602,-6.99 8.602,-20.968 -0,-33.334c-7.527,-12.365 -21.506,-17.742 -30.108,-10.752Z" style="fill:#151c24;fill-rule:nonzero;"/></g></svg>