<?xml version="1.0" encoding="UTF-8" standalone="no"?><!DOCTYPE svg PUBLIC "-//W3C//DTD SVG 1.1//EN" "http://www.w3.org/Graphics/SVG/1.1/DTD/svg11.dtd"><svg width="100%" height="100%" viewBox="0 0 2667 2667" version="1.1" xmlns="http://www.w3.org/2000/svg" xmlns:xlink="http://www.w3.org/1999/xlink" xml:space="preserve" xmlns:serif="http://www.serif.com/" style="fill-rule:evenodd;clip-rule:evenodd;stroke-linejoin:round;stroke-miterlimit:2;"><g id="path182"><path d="M1333.63,649.486c-378.359,0 -683.544,305.186 -683.544,683.545c-0,378.359 305.185,683.545 683.544,683.545c378.359,-0 683.545,-305.186 683.545,-683.545c0,-378.359 -305.186,-683.545 -683.545,-683.545Zm0,1127.94c-244.505,0 -444.393,-199.292 -444.393,-444.393c0,-245.101 199.293,-444.393 444.393,-444.393c245.101,-0 444.394,199.292 444.394,444.393c-0,245.101 -199.888,444.393 -444.394,444.393Zm870.94,-1155.9c0,88.64 -71.388,159.434 -159.434,159.434c-88.641,-0 -159.435,-71.389 -159.435,-159.434c0,-88.046 71.389,-159.435 159.435,-159.435c88.046,0 159.434,71.389 159.434,159.435Zm452.722,161.814c-10.113,-213.571 -58.895,-402.751 -215.355,-558.615c-155.865,-155.865 -345.045,-204.647 -558.615,-215.356c-220.115,-12.493 -879.863,-12.493 -1099.98,0c-212.976,10.114 -402.155,58.896 -558.615,214.761c-156.46,155.865 -204.647,345.044 -215.355,558.615c-12.493,220.114 -12.493,879.863 -0,1099.98c10.113,213.571 58.895,402.751 215.355,558.615c156.46,155.865 345.044,204.648 558.615,215.356c220.115,12.493 879.863,12.493 1099.98,-0c213.57,-10.114 402.75,-58.896 558.615,-215.356c155.865,-155.864 204.647,-345.044 215.355,-558.615c12.493,-220.114 12.493,-879.268 0,-1099.38Zm-284.364,1335.56c-46.403,116.602 -136.233,206.432 -253.429,253.43c-175.497,69.603 -591.93,53.541 -785.869,53.541c-193.938,-0 -610.966,15.467 -785.868,-53.541c-116.601,-46.403 -206.432,-136.233 -253.429,-253.43c-69.604,-175.496 -53.542,-591.929 -53.542,-785.868c0,-193.939 -15.467,-610.967 53.542,-785.868c46.402,-116.602 136.233,-206.432 253.429,-253.43c175.497,-69.603 591.93,-53.541 785.868,-53.541c193.939,0 610.967,-15.467 785.869,53.541c116.601,46.403 206.432,136.233 253.429,253.43c69.604,175.496 53.541,591.929 53.541,785.868c0,193.939 16.063,610.967 -53.541,785.868Z" style="fill:#151c24;fill-rule:nonzero;"/></g></svg>