<?xml version="1.0" encoding="UTF-8" standalone="no"?><!DOCTYPE svg PUBLIC "-//W3C//DTD SVG 1.1//EN" "http://www.w3.org/Graphics/SVG/1.1/DTD/svg11.dtd"><svg width="100%" height="100%" viewBox="0 0 2667 2667" version="1.1" xmlns="http://www.w3.org/2000/svg" xmlns:xlink="http://www.w3.org/1999/xlink" xml:space="preserve" xmlns:serif="http://www.serif.com/" style="fill-rule:evenodd;clip-rule:evenodd;stroke-linejoin:round;stroke-miterlimit:2;"><g id="linkedin-in.svg"><g><g><path d="M596.905,2666.61l-552.856,-0l-0,-1780.36l552.856,0l0,1780.36Zm-276.725,-2023.21c-176.786,-0 -320.179,-146.429 -320.179,-323.214c0,-175.643 144.536,-320.179 320.179,-320.179c175.642,0 320.178,144.536 320.178,320.179c-0,176.785 -143.452,323.214 -320.178,323.214Zm2346.49,2023.21l-552.261,-0l-0,-866.666c-0,-206.547 -4.167,-471.428 -287.44,-471.428c-287.44,-0 -331.488,224.404 -331.488,456.547l0,881.547l-552.261,-0l-0,-1780.36l530.237,0l0,242.857l7.738,0c73.81,-139.88 254.107,-287.499 523.095,-287.499c559.523,-0 662.38,368.452 662.38,847.023l0,977.975Z" style="fill:#151c24;fill-rule:nonzero;"/></g></g></g></svg>