<?xml version="1.0" encoding="UTF-8" standalone="no"?><!DOCTYPE svg PUBLIC "-//W3C//DTD SVG 1.1//EN" "http://www.w3.org/Graphics/SVG/1.1/DTD/svg11.dtd"><svg width="100%" height="100%" viewBox="0 0 200 200" version="1.1" xmlns="http://www.w3.org/2000/svg" xmlns:xlink="http://www.w3.org/1999/xlink" xml:space="preserve" xmlns:serif="http://www.serif.com/" style="fill-rule:evenodd;clip-rule:evenodd;stroke-linejoin:round;stroke-miterlimit:2;"><path d="M129.825,52.631c9.689,0 17.544,7.855 17.544,17.544c-0,4.653 -1.849,9.116 -5.139,12.406c-3.29,3.29 -7.753,5.138 -12.405,5.138l-59.606,0c-19.37,-0 -35.076,15.697 -35.087,35.068c-0.012,19.831 -0.025,43.767 -0.034,59.679c-0.006,9.685 -7.859,17.534 -17.544,17.534l-0.01,0c-9.689,0 -17.544,-7.855 -17.544,-17.544l0,-59.649c0,-38.757 31.418,-70.176 70.175,-70.176l59.65,0Zm-0,-52.631c18.611,0 36.46,7.393 49.621,20.554c13.161,13.16 20.554,31.009 20.554,49.621c0,38.757 -31.419,70.176 -70.175,70.176l-59.65,-0c-9.689,-0 -17.544,-7.855 -17.544,-17.544c0,-9.689 7.855,-17.544 17.544,-17.544l59.65,-0c9.305,-0 18.23,-3.697 24.81,-10.277c6.581,-6.58 10.277,-15.505 10.277,-24.811c0,-9.305 -3.696,-18.23 -10.277,-24.81c-6.58,-6.581 -15.505,-10.278 -24.81,-10.278l-112.281,0c-9.689,0 -17.544,-7.854 -17.544,-17.543c0,-9.689 7.855,-17.544 17.544,-17.544l112.281,-0Z" style="fill:url(#_Linear1);"/><defs><linearGradient id="_Linear1" x1="0" y1="0" x2="1" y2="0" gradientUnits="userSpaceOnUse" gradientTransform="matrix(308.836,0,0,308.836,-87.7194,112.281)"><stop offset="0" style="stop-color:#0cf;stop-opacity:1"/><stop offset="0.57" style="stop-color:#1cd2e6;stop-opacity:1"/><stop offset="0.8" style="stop-color:#58deb1;stop-opacity:1"/><stop offset="1" style="stop-color:#91e97e;stop-opacity:1"/></linearGradient></defs></svg>