<?xml version="1.0" encoding="UTF-8" standalone="no"?><!DOCTYPE svg PUBLIC "-//W3C//DTD SVG 1.1//EN" "http://www.w3.org/Graphics/SVG/1.1/DTD/svg11.dtd"><svg width="100%" height="100%" viewBox="0 0 2963 211" version="1.1" xmlns="http://www.w3.org/2000/svg" xmlns:xlink="http://www.w3.org/1999/xlink" xml:space="preserve" xmlns:serif="http://www.serif.com/" style="fill-rule:evenodd;clip-rule:evenodd;stroke-linejoin:round;stroke-miterlimit:2;"><g><path d="M124.977,1.749c3.168,-0 6.002,1.248 8.502,3.748c2.667,2.333 3.998,5.334 3.998,9.003c0,1.331 -0.25,2.667 -0.747,3.998c-0.334,1.169 -0.918,2.417 -1.753,3.753l-57.252,81.001l4.003,-14.75l-0,76.255c-0,3.665 -1.253,6.749 -3.753,9.249c-2.5,2.334 -5.334,3.502 -8.498,3.502c-3.501,0 -6.502,-1.168 -9.003,-3.502c-2.333,-2.5 -3.497,-5.584 -3.497,-9.249l-0,-74.256l1.749,7.25l-55.253,-73.752c-1.336,-1.832 -2.25,-3.501 -2.751,-5c-0.501,-1.665 -0.751,-3.251 -0.751,-4.75c-0,-3.668 1.419,-6.669 4.253,-9.003c2.997,-2.333 5.998,-3.497 8.999,-3.497c3.998,-0 7.417,1.916 10.251,5.751l50.002,68.501l-6.002,-0.751l47.006,-67.503c2.829,-3.999 6.331,-5.998 10.497,-5.998Zm189.666,88.255c0,12.664 -2.087,24.501 -6.252,35.499c-4.166,10.835 -10.084,20.334 -17.751,28.503c-7.501,8.168 -16.416,14.583 -26.75,19.249c-10.335,4.5 -21.671,6.753 -34.004,6.753c-12.167,0 -23.416,-2.253 -33.75,-6.753c-10.334,-4.666 -19.333,-11.081 -27,-19.249c-7.501,-8.169 -13.336,-17.668 -17.501,-28.503c-4.003,-10.998 -6.002,-22.835 -6.002,-35.499c-0,-12.667 1.999,-24.421 6.002,-35.252c4.165,-11.002 10,-20.585 17.501,-28.753c7.667,-8.168 16.666,-14.5 27,-19c10.334,-4.666 21.583,-6.999 33.75,-6.999c12.333,-0 23.669,2.333 34.004,6.999c10.334,4.5 19.249,10.832 26.75,19c7.667,8.168 13.585,17.751 17.751,28.753c4.165,10.831 6.252,22.585 6.252,35.252Zm-27.004,0c-0,-12.338 -2.5,-23.419 -7.501,-33.253c-4.833,-9.833 -11.582,-17.584 -20.251,-23.252c-8.665,-5.668 -18.665,-8.498 -30.001,-8.498c-11.165,0 -21.082,2.83 -29.751,8.498c-8.665,5.668 -15.418,13.419 -20.252,23.252c-4.833,9.667 -7.25,20.753 -7.25,33.253c0,12.334 2.417,23.415 7.25,33.249c4.834,9.833 11.587,17.584 20.252,23.252c8.669,5.668 18.586,8.502 29.751,8.502c11.336,0 21.336,-2.834 30.001,-8.502c8.669,-5.668 15.418,-13.419 20.251,-23.252c5.001,-9.834 7.501,-20.915 7.501,-33.249Zm181.945,-87.754c3.669,-0 6.582,1.248 8.752,3.748c2.166,2.333 3.247,5.334 3.247,9.003l0,94.754c0,13.331 -2.917,25.251 -8.748,35.748c-5.835,10.502 -13.836,18.753 -24.003,24.751c-10.168,5.835 -21.917,8.753 -35.253,8.753c-13.164,-0 -24.917,-2.918 -35.247,-8.753c-10.168,-5.998 -18.253,-14.249 -24.254,-24.751c-5.831,-10.497 -8.749,-22.417 -8.749,-35.748l0,-94.754c0,-3.669 1.248,-6.67 3.748,-9.003c2.5,-2.5 5.752,-3.748 9.75,-3.748c3.168,-0 6.002,1.248 8.502,3.748c2.667,2.333 3.999,5.334 3.999,9.003l-0,94.754c-0,8.832 1.92,16.582 5.751,23.248c3.999,6.503 9.25,11.67 15.752,15.501c6.499,3.669 13.415,5.502 20.748,5.502c8.002,-0 15.335,-1.833 22.005,-5.502c6.665,-3.831 12,-8.998 15.998,-15.501c4.17,-6.666 6.252,-14.416 6.252,-23.248l0,-94.754c0,-3.669 0.998,-6.67 3.001,-9.003c2.167,-2.5 5.084,-3.748 8.749,-3.748Zm67.753,175.258c-3.998,0 -7.5,-1.168 -10.497,-3.502c-3.001,-2.5 -4.503,-5.584 -4.503,-9.249l-0,-149.51c-0,-3.665 1.252,-6.666 3.752,-8.999c2.5,-2.5 5.501,-3.748 8.999,-3.748l70.504,0c9.003,0 17.25,2.25 24.751,6.749c7.5,4.333 13.502,10.418 18.001,18.252c4.667,7.663 7,16.499 7,26.5c-0,6.665 -1.332,13.085 -3.999,19.25c-2.667,6.001 -6.252,11.336 -10.752,16.002c-4.499,4.666 -9.583,8.168 -15.251,10.501l-2.75,-4.75c5.167,1.833 9.666,4.5 13.502,7.997c3.832,3.335 6.833,7.334 8.999,12.004c2.333,4.5 3.585,9.667 3.752,15.498c0.501,5.167 0.914,9.504 1.248,13.001c0.501,3.335 1.169,6.086 2.003,8.252c0.831,2.166 2.334,3.831 4.5,5c3.001,1.665 4.833,4.166 5.501,7.5c0.831,3.331 0.163,6.332 -2.004,8.999c-1.498,1.999 -3.414,3.335 -5.747,4.003c-2.166,0.497 -4.42,0.58 -6.753,0.25c-2.333,-0.501 -4.333,-1.168 -5.998,-2.003c-2.667,-1.665 -5.417,-3.999 -8.252,-7c-2.667,-3.168 -4.833,-7.5 -6.498,-13.001c-1.67,-5.497 -2.5,-12.751 -2.5,-21.75c-0,-4.165 -0.668,-7.751 -2.004,-10.752c-1.331,-2.996 -3.163,-5.417 -5.497,-7.25c-2.333,-1.999 -5.083,-3.414 -8.251,-4.248c-3.168,-1.002 -6.666,-1.499 -10.502,-1.499l-53.003,0l3.502,-5l-0,59.752c-0,3.665 -1.002,6.749 -3.001,9.249c-1.999,2.334 -4.75,3.502 -8.252,3.502Zm8.002,-89.257l59.752,0c3.836,-0.167 7.5,-1.665 11.002,-4.499c3.665,-3.001 6.582,-7 8.748,-12c2.334,-5 3.502,-10.668 3.502,-17c0,-8.001 -2.416,-14.671 -7.25,-20.001c-4.666,-5.501 -10.251,-8.251 -16.749,-8.251l-58.505,-0l2.751,-6.499l-0,73.501l-3.251,-5.251Zm1067.58,88.506c-0,5.167 -1.499,10.334 -4.5,15.502c-3.001,5.167 -6.749,9.416 -11.248,12.751c-4.504,3.497 -9.254,5.246 -14.254,5.246c-1.665,0 -3.414,-0.664 -5.25,-1.999c-1.666,-1.165 -2.501,-3.414 -2.501,-6.749c0,-3.335 1.002,-5.334 3.001,-6.002c2.167,-0.497 4.249,-1.248 6.253,-2.25c2.333,-1.164 4.165,-2.667 5.497,-4.499c1.335,-1.666 2.003,-3.669 2.003,-6.002c0,-1.999 -0.835,-3.665 -2.5,-5c-1.503,-1.332 -3.502,-2 -6.002,-2c-1.002,0 -2.166,0.167 -3.502,0.501c-1.164,0.167 -2.249,0.584 -3.247,1.252c-1.503,-0.834 -2.751,-1.836 -3.752,-3.001c-0.998,-1.168 -1.499,-2.917 -1.499,-5.25c0.167,-4.333 2.25,-8.085 6.249,-11.253c4.169,-3.331 8.919,-5 14.253,-5c6.332,-0 11.416,2.249 15.251,6.753c3.832,4.499 5.748,10.167 5.748,17Zm261.857,-86.753c-0,12.664 -2.087,24.501 -6.253,35.499c-4.165,10.835 -10.084,20.334 -17.751,28.503c-7.5,8.168 -16.416,14.583 -26.75,19.249c-10.334,4.5 -21.67,6.753 -34.004,6.753c-12.167,0 -23.415,-2.253 -33.75,-6.753c-10.334,-4.666 -19.333,-11.081 -27,-19.249c-7.5,-8.169 -13.335,-17.668 -17.501,-28.503c-4.003,-10.998 -6.002,-22.835 -6.002,-35.499c0,-12.667 1.999,-24.421 6.002,-35.252c4.166,-11.002 10.001,-20.585 17.501,-28.753c7.667,-8.168 16.666,-14.5 27,-19c10.335,-4.666 21.583,-6.999 33.75,-6.999c12.334,-0 23.67,2.333 34.004,6.999c10.334,4.5 19.25,10.832 26.75,19c7.667,8.168 13.586,17.751 17.751,28.753c4.166,10.831 6.253,22.585 6.253,35.252Zm-27.005,0c0,-12.338 -2.5,-23.419 -7.5,-33.253c-4.834,-9.833 -11.583,-17.584 -20.252,-23.252c-8.665,-5.668 -18.665,-8.498 -30.001,-8.498c-11.165,0 -21.082,2.83 -29.751,8.498c-8.665,5.668 -15.418,13.419 -20.251,23.252c-4.834,9.667 -7.25,20.753 -7.25,33.253c-0,12.334 2.416,23.415 7.25,33.249c4.833,9.833 11.586,17.584 20.251,23.252c8.669,5.668 18.586,8.502 29.751,8.502c11.336,0 21.336,-2.834 30.001,-8.502c8.669,-5.668 15.418,-13.419 20.252,-23.252c5,-9.834 7.5,-20.915 7.5,-33.249Zm181.945,-87.754c3.669,-0 6.582,1.248 8.753,3.748c2.166,2.333 3.247,5.334 3.247,9.003l-0,94.754c-0,13.331 -2.918,25.251 -8.749,35.748c-5.835,10.502 -13.836,18.753 -24.003,24.751c-10.168,5.835 -21.917,8.753 -35.248,8.753c-13.168,-0 -24.922,-2.918 -35.252,-8.753c-10.168,-5.998 -18.252,-14.249 -24.254,-24.751c-5.831,-10.497 -8.748,-22.417 -8.748,-35.748l-0,-94.754c-0,-3.669 1.247,-6.67 3.748,-9.003c2.5,-2.5 5.751,-3.748 9.75,-3.748c3.168,-0 6.002,1.248 8.502,3.748c2.667,2.333 3.998,5.334 3.998,9.003l0,94.754c0,8.832 1.92,16.582 5.752,23.248c4.002,6.503 9.249,11.67 15.752,15.501c6.498,3.669 13.414,5.502 20.752,5.502c7.997,-0 15.33,-1.833 22,-5.502c6.666,-3.831 12,-8.998 15.998,-15.501c4.17,-6.666 6.253,-14.416 6.253,-23.248l-0,-94.754c-0,-3.669 0.997,-6.67 3.001,-9.003c2.166,-2.5 5.083,-3.748 8.748,-3.748Zm67.754,175.258c-3.999,0 -7.501,-1.168 -10.497,-3.502c-3.001,-2.5 -4.504,-5.584 -4.504,-9.249l-0,-149.51c-0,-3.665 1.252,-6.666 3.752,-8.999c2.5,-2.5 5.501,-3.748 8.999,-3.748l70.504,0c9.003,0 17.25,2.25 24.751,6.749c7.5,4.333 13.502,10.418 18.002,18.252c4.666,7.663 6.999,16.499 6.999,26.5c-0,6.665 -1.331,13.085 -3.999,19.25c-2.667,6.001 -6.252,11.336 -10.751,16.002c-4.5,4.666 -9.583,8.168 -15.251,10.501l-2.751,-4.75c5.167,1.833 9.671,4.5 13.502,7.997c3.832,3.335 6.833,7.334 8.999,12.004c2.333,4.5 3.585,9.667 3.752,15.498c0.501,5.167 0.919,9.504 1.248,13.001c0.501,3.335 1.169,6.086 2.004,8.252c0.83,2.166 2.333,3.831 4.499,5c3.001,1.665 4.833,4.166 5.501,7.5c0.831,3.331 0.167,6.332 -2.003,8.999c-1.499,1.999 -3.414,3.335 -5.748,4.003c-2.166,0.497 -4.42,0.58 -6.753,0.25c-2.333,-0.501 -4.332,-1.168 -5.998,-2.003c-2.667,-1.665 -5.417,-3.999 -8.251,-7c-2.667,-3.168 -4.833,-7.5 -6.499,-13.001c-1.669,-5.497 -2.5,-12.751 -2.5,-21.75c0,-4.165 -0.668,-7.751 -2.003,-10.752c-1.332,-2.996 -3.164,-5.417 -5.497,-7.25c-2.333,-1.999 -5.084,-3.414 -8.252,-4.248c-3.168,-1.002 -6.666,-1.499 -10.501,-1.499l-53.004,0l3.502,-5l0,59.752c0,3.665 -1.001,6.749 -3.001,9.249c-1.999,2.334 -4.75,3.502 -8.251,3.502Zm8.001,-89.257l59.752,0c3.836,-0.167 7.501,-1.665 11.002,-4.499c3.669,-3.001 6.583,-7 8.749,-12c2.337,-5 3.502,-10.668 3.502,-17c-0,-8.001 -2.417,-14.671 -7.25,-20.001c-4.667,-5.501 -10.251,-8.251 -16.75,-8.251l-58.504,-0l2.75,-6.499l0,73.501l-3.251,-5.251Z" style="fill:#fff;fill-opacity:0.9;fill-rule:nonzero;"/><path d="M889.603,1.999c3.498,0 6.499,1.165 8.999,3.498c2.5,2.333 3.752,5.167 3.752,8.502c0,1.832 -0.417,3.748 -1.252,5.752l-63.254,149.506c-1.331,2.834 -3.164,4.916 -5.497,6.248c-2.17,1.335 -4.42,2.003 -6.753,2.003c-2.333,-0.167 -4.583,-0.918 -6.749,-2.254c-1.999,-1.331 -3.585,-3.247 -4.75,-5.747l-63.254,-149.756c-0.334,-0.835 -0.585,-1.67 -0.751,-2.501c-0.167,-1.001 -0.247,-2.003 -0.247,-3.001c0,-3.835 1.415,-6.832 4.249,-9.003c2.834,-2.166 5.585,-3.247 8.252,-3.247c5.33,0 9.249,2.751 11.749,8.248l57.252,135.757l-7.25,0l54.001,-136.004c2.334,-5.334 6.169,-8.001 11.503,-8.001Zm67.207,162.758c-0.167,3.665 -1.582,6.749 -4.249,9.249c-2.5,2.334 -5.501,3.502 -8.999,3.502c-3.835,0 -6.999,-1.168 -9.499,-3.502c-2.337,-2.5 -3.502,-5.584 -3.502,-9.249l0,-149.51c0,-3.665 1.248,-6.666 3.748,-8.999c2.5,-2.5 5.752,-3.748 9.754,-3.748c3.331,0 6.249,1.248 8.749,3.748c2.667,2.333 3.998,5.334 3.998,8.999l0,149.51Zm94.157,15.251c-11.999,0 -22.668,-1.669 -32,-5c-9.337,-3.335 -18.252,-8.836 -26.754,-16.503c-1.833,-1.332 -3.248,-2.918 -4.249,-4.75c-0.835,-1.999 -1.248,-3.998 -1.248,-6.002c-0,-3.164 1.164,-5.998 3.497,-8.498c2.333,-2.5 5.251,-3.752 8.753,-3.752c2.667,-0 5.167,0.918 7.5,2.751c6.332,5.835 12.914,10.25 19.751,13.251c6.999,3.001 15.167,4.5 24.5,4.5c6.666,-0 12.751,-1.081 18.252,-3.252c5.664,-2.166 10.167,-5.083 13.498,-8.748c3.335,-3.669 5,-7.918 5,-12.751c0,-6.002 -1.748,-10.919 -5.25,-14.75c-3.331,-3.999 -8.248,-7.25 -14.751,-9.75c-6.331,-2.667 -13.999,-4.917 -23.001,-6.749c-8.331,-1.503 -15.832,-3.586 -22.502,-6.253c-6.498,-2.667 -12.083,-6.002 -16.749,-10c-4.666,-4.166 -8.252,-9.082 -10.752,-14.75c-2.5,-5.668 -3.748,-12.251 -3.748,-19.751c0,-10.167 2.667,-18.92 8.001,-26.253c5.334,-7.334 12.584,-12.998 21.75,-17c9.166,-3.999 19.5,-5.998 31.003,-5.998c10.497,-0 20.335,1.665 29.501,5c9.165,3.164 16.582,7.501 22.25,12.998c3.999,3.501 6.002,7.249 6.002,11.252c0,3.001 -1.252,5.831 -3.752,8.498c-2.333,2.5 -5.084,3.752 -8.252,3.752c-2.333,0 -4.332,-0.668 -5.997,-1.999c-2.667,-2.834 -6.253,-5.334 -10.752,-7.5c-4.499,-2.334 -9.333,-4.253 -14.5,-5.752c-5,-1.498 -9.833,-2.25 -14.5,-2.25c-7.5,0 -13.919,1.081 -19.254,3.252c-5.334,1.999 -9.416,4.833 -12.25,8.498c-2.834,3.502 -4.249,7.667 -4.249,12.5c0,5.668 1.582,10.335 4.75,14.003c3.335,3.665 7.918,6.666 13.753,8.999c5.831,2.166 12.5,4.166 20.001,6.002c9.165,1.999 17.334,4.249 24.5,6.749c7.333,2.5 13.498,5.752 18.498,9.75c5.001,3.832 8.836,8.669 11.503,14.5c2.668,5.835 3.999,13.085 3.999,21.754c-0,10.001 -2.834,18.749 -8.498,26.249c-5.668,7.501 -13.168,13.336 -22.501,17.501c-9.17,4.166 -19.421,6.252 -30.753,6.252Zm118.745,-15.251c-0.166,3.665 -1.581,6.749 -4.248,9.249c-2.501,2.334 -5.502,3.502 -9.003,3.502c-3.832,0 -7,-1.168 -9.5,-3.502c-2.333,-2.5 -3.502,-5.584 -3.502,-9.249l0,-149.51c0,-3.665 1.252,-6.666 3.752,-8.999c2.501,-2.5 5.752,-3.748 9.75,-3.748c3.335,0 6.253,1.248 8.753,3.748c2.667,2.333 3.998,5.334 3.998,8.999l0,149.51Zm199.91,-74.753c-0,12.664 -2.083,24.501 -6.249,35.499c-4.169,10.835 -10.084,20.334 -17.751,28.503c-7.5,8.168 -16.42,14.583 -26.754,19.249c-10.33,4.5 -21.666,6.753 -34,6.753c-12.167,0 -23.419,-2.253 -33.749,-6.753c-10.335,-4.666 -19.338,-11.081 -27.005,-19.249c-7.5,-8.169 -13.331,-17.668 -17.501,-28.503c-3.998,-10.998 -5.998,-22.835 -5.998,-35.499c0,-12.667 2,-24.421 5.998,-35.252c4.17,-11.002 10.001,-20.585 17.501,-28.753c7.667,-8.168 16.67,-14.5 27.005,-19c10.33,-4.666 21.582,-6.999 33.749,-6.999c12.334,-0 23.67,2.333 34,6.999c10.334,4.5 19.254,10.832 26.754,19c7.667,8.168 13.582,17.751 17.751,28.753c4.166,10.831 6.249,22.585 6.249,35.252Zm-27.001,0c0,-12.338 -2.5,-23.419 -7.5,-33.253c-4.833,-9.833 -11.582,-17.584 -20.252,-23.252c-8.664,-5.668 -18.665,-8.498 -30.001,-8.498c-11.165,0 -21.086,2.83 -29.751,8.498c-8.669,5.668 -15.418,13.419 -20.251,23.252c-4.834,9.667 -7.25,20.753 -7.25,33.253c-0,12.334 2.416,23.415 7.25,33.249c4.833,9.833 11.582,17.584 20.251,23.252c8.665,5.668 18.586,8.502 29.751,8.502c11.336,0 21.337,-2.834 30.001,-8.502c8.67,-5.668 15.419,-13.419 20.252,-23.252c5,-9.834 7.5,-20.915 7.5,-33.249Zm188.945,-87.504c3.335,0 5.998,1.165 8.001,3.498c2.166,2.166 3.247,4.917 3.247,8.251l0,150.508c0,3.665 -1.248,6.749 -3.748,9.249c-2.333,2.334 -5.334,3.502 -9.003,3.502c-1.665,0 -3.497,-0.334 -5.497,-1.001c-1.836,-0.668 -3.251,-1.582 -4.253,-2.751l-102.755,-133.257l5.751,-3.248l0,128.754c0,3.168 -1.081,5.919 -3.251,8.252c-2.166,2.166 -4.917,3.251 -8.247,3.251c-3.502,0 -6.336,-1.085 -8.502,-3.251c-2,-2.333 -3.001,-5.084 -3.001,-8.252l-0,-150.758c-0,-3.832 1.252,-6.916 3.752,-9.249c2.5,-2.333 5.501,-3.498 8.999,-3.498c1.836,0 3.752,0.413 5.751,1.248c2.166,0.668 3.748,1.749 4.75,3.251l100.255,130.507l-3.752,3.498l-0,-126.755c-0,-3.334 1.085,-6.085 3.251,-8.251c2.166,-2.333 4.917,-3.498 8.252,-3.498Zm914.917,10.001c3.665,1.832 5.752,4.666 6.248,8.497c0.668,3.836 -0.246,7.334 -2.746,10.502c-1.836,2.5 -4.253,3.915 -7.254,4.249c-2.83,0.334 -5.664,-0.251 -8.498,-1.749c-4.833,-2.5 -9.917,-4.499 -15.251,-6.002c-5.334,-1.498 -11.002,-2.25 -17,-2.25c-9.5,0 -18.085,1.586 -25.752,4.75c-7.501,3.001 -13.999,7.417 -19.5,13.252c-5.502,5.668 -9.751,12.417 -12.752,20.251c-2.834,7.835 -4.248,16.499 -4.248,26.003c-0,10.497 1.581,19.834 4.749,27.998c3.164,8.001 7.501,14.834 13.002,20.502c5.664,5.501 12.25,9.667 19.75,12.501c7.668,2.667 15.915,4.002 24.751,4.002c5.664,0 11.165,-0.668 16.499,-2.003c5.501,-1.332 10.668,-3.331 15.502,-5.998c3.001,-1.503 5.918,-1.999 8.748,-1.503c3.001,0.334 5.418,1.753 7.254,4.254c2.83,3.497 3.832,7.083 2.997,10.747c-0.664,3.502 -2.751,6.169 -6.248,8.001c-4.166,2.334 -8.753,4.333 -13.753,6.002c-5,1.666 -10.084,3.001 -15.251,3.999c-5.163,1.002 -10.414,1.502 -15.748,1.502c-12,0 -23.336,-2.003 -34.004,-6.002c-10.664,-3.998 -20.168,-9.833 -28.499,-17.5c-8.335,-7.668 -14.917,-17.084 -19.75,-28.253c-4.667,-11.165 -7.004,-23.916 -7.004,-38.249c-0,-12.834 2.17,-24.671 6.503,-35.502c4.499,-11.002 10.752,-20.419 18.749,-28.253c8.168,-8.001 17.667,-14.166 28.503,-18.502c10.835,-4.5 22.668,-6.749 35.502,-6.749c8.001,-0 15.748,1.001 23.248,3.001c7.668,1.999 14.755,4.833 21.253,8.502Zm194.196,77.503c-0,12.664 -2.083,24.501 -6.253,35.499c-4.165,10.835 -10.084,20.334 -17.751,28.503c-7.5,8.168 -16.416,14.583 -26.75,19.249c-10.334,4.5 -21.666,6.753 -34,6.753c-12.167,0 -23.419,-2.253 -33.754,-6.753c-10.334,-4.666 -19.333,-11.081 -27,-19.249c-7.5,-8.169 -13.335,-17.668 -17.501,-28.503c-3.998,-10.998 -6.002,-22.835 -6.002,-35.499c0,-12.667 2.004,-24.421 6.002,-35.252c4.166,-11.002 10.001,-20.585 17.501,-28.753c7.667,-8.168 16.666,-14.5 27,-19c10.335,-4.666 21.587,-6.999 33.754,-6.999c12.334,-0 23.666,2.333 34,6.999c10.334,4.5 19.25,10.832 26.75,19c7.667,8.168 13.586,17.751 17.751,28.753c4.17,10.831 6.253,22.585 6.253,35.252Zm-27.001,0c0,-12.338 -2.5,-23.419 -7.5,-33.253c-4.834,-9.833 -11.587,-17.584 -20.252,-23.252c-8.669,-5.668 -18.669,-8.498 -30.001,-8.498c-11.169,0 -21.086,2.83 -29.751,8.498c-8.669,5.668 -15.418,13.419 -20.251,23.252c-4.834,9.667 -7.25,20.753 -7.25,33.253c-0,12.334 2.416,23.415 7.25,33.249c4.833,9.833 11.582,17.584 20.251,23.252c8.665,5.668 18.582,8.502 29.751,8.502c11.332,0 21.332,-2.834 30.001,-8.502c8.665,-5.668 15.418,-13.419 20.252,-23.252c5,-9.834 7.5,-20.915 7.5,-33.249Zm131.442,-87.504c12.167,0 22.914,2.333 32.251,7c9.333,4.499 17.083,10.831 23.248,18.999c6.336,8.001 11.086,17.334 14.254,28.002c3.164,10.501 4.75,21.666 4.75,33.503c-0,16.165 -2.834,30.916 -8.502,44.251c-5.669,13.168 -13.999,23.666 -25.002,31.5c-10.998,7.834 -24.667,11.753 -40.999,11.753l-61.005,0c-3.501,0 -6.498,-1.168 -8.998,-3.502c-2.5,-2.5 -3.753,-5.584 -3.753,-9.249l0,-149.51c0,-3.665 1.253,-6.666 3.753,-8.999c2.5,-2.5 5.497,-3.748 8.998,-3.748l61.005,0Zm-2.5,151.005c11.833,-0 21.416,-2.918 28.749,-8.749c7.333,-5.835 12.668,-13.502 16.002,-23.002c3.498,-9.666 5.251,-20.251 5.251,-31.75c0,-8.502 -1.002,-16.503 -3.001,-24.003c-1.836,-7.668 -4.833,-14.417 -9.003,-20.252c-3.998,-5.998 -9.165,-10.668 -15.497,-13.999c-6.169,-3.502 -13.669,-5.25 -22.501,-5.25l-47.256,-0l2.254,-2.25l-0,131.755l-1.503,-2.5l46.505,-0Zm120.46,-151.005l86.503,0c3.502,0 6.415,1.165 8.748,3.498c2.5,2.333 3.752,5.25 3.752,8.752c0,3.498 -1.252,6.332 -3.752,8.498c-2.333,2.166 -5.246,3.252 -8.748,3.252l-75.505,-0l2.501,-4.249l-0,56l-2.25,-2.5l64.001,-0c3.502,-0 6.419,1.168 8.753,3.501c2.5,2.334 3.748,5.335 3.748,8.999c-0,3.502 -1.248,6.336 -3.748,8.502c-2.334,2.166 -5.251,3.252 -8.753,3.252l-63.5,-0l1.749,-2.254l-0,57.753l-1.749,-1.999l74.753,-0c3.502,-0 6.415,1.252 8.748,3.752c2.5,2.333 3.752,5.084 3.752,8.247c0,3.502 -1.252,6.42 -3.752,8.753c-2.333,2.166 -5.246,3.251 -8.748,3.251l-86.503,0c-3.501,0 -6.502,-1.168 -9.003,-3.502c-2.5,-2.5 -3.748,-5.584 -3.748,-9.249l0,-149.51c0,-3.665 1.248,-6.666 3.748,-8.999c2.501,-2.5 5.502,-3.748 9.003,-3.748Z" style="fill:url(#_Linear1);fill-rule:nonzero;"/></g><defs><linearGradient id="_Linear1" x1="0" y1="0" x2="1" y2="0" gradientUnits="userSpaceOnUse" gradientTransform="matrix(5865.07,0,0,5865.07,-2491.14,102.818)"><stop offset="0" style="stop-color:#0cf;stop-opacity:1"/><stop offset="0.57" style="stop-color:#1cd2e6;stop-opacity:1"/><stop offset="0.8" style="stop-color:#58deb1;stop-opacity:1"/><stop offset="1" style="stop-color:#91e97e;stop-opacity:1"/></linearGradient></defs></svg>