<?xml version="1.0" encoding="UTF-8" standalone="no"?><!DOCTYPE svg PUBLIC "-//W3C//DTD SVG 1.1//EN" "http://www.w3.org/Graphics/SVG/1.1/DTD/svg11.dtd"><svg width="100%" height="100%" viewBox="0 0 24 24" version="1.1" xmlns="http://www.w3.org/2000/svg" xmlns:xlink="http://www.w3.org/1999/xlink" xml:space="preserve" xmlns:serif="http://www.serif.com/" style="fill-rule:evenodd;clip-rule:evenodd;stroke-linejoin:round;stroke-miterlimit:2;"><g><path d="M13.401,1.283c-0.012,-0.346 -0.157,-0.672 -0.405,-0.911c-0.248,-0.24 -0.578,-0.373 -0.923,-0.372c-0.346,0.001 -0.676,0.134 -0.925,0.375c-0.249,0.24 -0.395,0.566 -0.408,0.912l-0.02,9.337l-9.339,0.015c-0.178,-0.005 -0.357,0.024 -0.524,0.088c-0.167,0.065 -0.319,0.162 -0.448,0.286c-0.129,0.125 -0.231,0.274 -0.302,0.438c-0.07,0.165 -0.106,0.343 -0.107,0.521c-0,0.179 0.036,0.355 0.105,0.52c0.069,0.165 0.171,0.313 0.3,0.437c0.129,0.124 0.281,0.221 0.447,0.285c0.167,0.064 0.346,0.093 0.524,0.086l9.338,-0.015l-0.02,9.339c-0.007,0.178 0.023,0.356 0.086,0.523c0.064,0.167 0.161,0.319 0.285,0.448c0.124,0.128 0.272,0.23 0.437,0.3c0.163,0.069 0.341,0.105 0.52,0.105c0.178,-0.001 0.356,-0.037 0.52,-0.107c0.164,-0.071 0.314,-0.172 0.438,-0.302c0.125,-0.129 0.222,-0.281 0.286,-0.448c0.064,-0.167 0.095,-0.345 0.089,-0.523l0.02,-9.339l9.338,-0.015c0.345,-0.012 0.671,-0.158 0.912,-0.407c0.239,-0.248 0.374,-0.58 0.375,-0.926c0.001,-0.344 -0.132,-0.675 -0.372,-0.923c-0.238,-0.248 -0.565,-0.393 -0.91,-0.404l-9.337,0.014l0.02,-9.337Z" style="fill:#151c24;fill-rule:nonzero;"/></g></svg>