<?xml version="1.0" encoding="UTF-8" standalone="no"?><!DOCTYPE svg PUBLIC "-//W3C//DTD SVG 1.1//EN" "http://www.w3.org/Graphics/SVG/1.1/DTD/svg11.dtd"><svg width="100%" height="100%" viewBox="0 0 40 40" version="1.1" xmlns="http://www.w3.org/2000/svg" xmlns:xlink="http://www.w3.org/1999/xlink" xml:space="preserve" xmlns:serif="http://www.serif.com/" style="fill-rule:evenodd;clip-rule:evenodd;stroke-linecap:round;stroke-linejoin:round;"><path d="M34,10l-1.734,24.284c-0.072,1.009 -0.523,1.954 -1.264,2.643c-0.74,0.69 -1.714,1.073 -2.726,1.073l-16.552,0c-1.012,0 -1.986,-0.383 -2.726,-1.073c-0.741,-0.689 -1.192,-1.634 -1.264,-2.643l-1.734,-24.284m10,8l0,12m8,-12l0,12m2,-20l0,-6c0,-0.53 -0.211,-1.039 -0.586,-1.414c-0.375,-0.375 -0.884,-0.586 -1.414,-0.586l-8,-0c-0.53,-0 -1.039,0.211 -1.414,0.586c-0.375,0.375 -0.586,0.884 -0.586,1.414l0,6m-10,0l32,0" style="fill:none;fill-rule:nonzero;stroke:#151c24;stroke-width:4px;"/></svg>