<svg width="24" height="24" viewBox="0 0 24 24" fill="none" xmlns="http://www.w3.org/2000/svg">
<g clip-path="url(#clip0_368_46)">
<path d="M3.10528 0.4831C2.76533 0.165148 2.3157 -0.00794729 1.85112 0.000280434C1.38653 0.00850815 0.943269 0.197416 0.614707 0.527208C0.286145 0.856999 0.0979409 1.30192 0.0897438 1.76825C0.0815468 2.23457 0.253997 2.68588 0.570763 3.0271L9.46548 11.9551L0.570763 20.8831C0.394574 21.0479 0.253258 21.2466 0.155244 21.4674C0.0572299 21.6882 0.00452748 21.9266 0.00027909 22.1682C-0.0039693 22.4099 0.0403235 22.65 0.130516 22.8741C0.220709 23.0983 0.354954 23.3019 0.525242 23.4728C0.69553 23.6437 0.898372 23.7785 1.12167 23.869C1.34496 23.9595 1.58414 24.004 1.82493 23.9997C2.06571 23.9955 2.30317 23.9426 2.52315 23.8442C2.74313 23.7458 2.94111 23.6039 3.10528 23.4271L12 14.4991L20.8947 23.4271C21.0589 23.6039 21.2569 23.7458 21.4768 23.8442C21.6968 23.9426 21.9343 23.9955 22.1751 23.9997C22.4159 24.004 22.655 23.9595 22.8783 23.869C23.1016 23.7785 23.3045 23.6437 23.4748 23.4728C23.645 23.3019 23.7793 23.0983 23.8695 22.8741C23.9597 22.65 24.004 22.4099 23.9997 22.1682C23.9955 21.9266 23.9428 21.6882 23.8448 21.4674C23.7467 21.2466 23.6054 21.0479 23.4292 20.8831L14.5345 11.9551L23.4292 3.0271C23.746 2.68588 23.9185 2.23457 23.9103 1.76825C23.9021 1.30192 23.7139 0.856999 23.3853 0.527208C23.0567 0.197416 22.6135 0.00850815 22.1489 0.000280434C21.6843 -0.00794729 21.2347 0.165148 20.8947 0.4831L12 9.4111L3.10528 0.4831Z" fill="url(#paint0_linear_368_46)"/>
</g>
<defs>
<linearGradient id="paint0_linear_368_46" x1="-10.5263" y1="13.4737" x2="26.534" y2="13.4737" gradientUnits="userSpaceOnUse">
<stop stop-color="#00CCFF"/>
<stop offset="0.57" stop-color="#1CD2E6"/>
<stop offset="0.8" stop-color="#58DEB1"/>
<stop offset="1" stop-color="#91E97E"/>
</linearGradient>
<clipPath id="clip0_368_46">
<rect width="24" height="24" fill="white"/>
</clipPath>
</defs>
</svg>
