<svg width="41" height="40" viewBox="0 0 41 40" fill="none" xmlns="http://www.w3.org/2000/svg">
<path d="M16.3833 26.87C15.9473 25.795 15.1511 24.9052 14.1311 24.3528C13.1111 23.8004 11.9308 23.6198 10.7923 23.842C9.65379 24.0641 8.62796 24.6753 7.89051 25.5707C7.15305 26.466 6.74987 27.59 6.75 28.75C6.75 29.2635 6.64453 29.7715 6.44013 30.2426C6.23574 30.7137 5.93676 31.1378 5.56174 31.4886C5.18672 31.8394 4.74365 32.1094 4.25999 32.282C3.77632 32.4545 3.26238 32.5259 2.75 32.4916C3.57408 33.9232 4.84772 35.0427 6.37321 35.6763C7.89869 36.3099 9.59068 36.4222 11.1865 35.9957C12.7823 35.5692 14.1927 34.6278 15.1987 33.3176C16.2047 32.0074 16.75 30.4018 16.75 28.75C16.75 28.085 16.62 27.45 16.3833 26.87ZM16.3833 26.87C18.365 26.1948 20.2603 25.2885 22.03 24.17M13.625 24.1283C14.3003 22.1424 15.2077 20.2431 16.3283 18.47M22.0283 24.17C25.1889 22.1731 27.8941 19.5337 29.9683 16.4233L36.4283 6.73329C36.6758 6.36423 36.7875 5.9207 36.7443 5.47845C36.7011 5.0362 36.5057 4.62266 36.1915 4.30845C35.8773 3.99425 35.4638 3.79886 35.0215 3.75567C34.5793 3.71248 34.1357 3.82415 33.7667 4.07163L24.0767 10.5333C20.9659 12.6069 18.3259 15.3115 16.3283 18.4716C18.8648 19.6058 20.8942 21.6351 22.0283 24.1716" stroke="url(#paint0_linear_303_71)" stroke-width="3" stroke-linecap="round" stroke-linejoin="round"/>
<defs>
<linearGradient id="paint0_linear_303_71" x1="-12.1638" y1="21.9941" x2="40.3436" y2="21.9941" gradientUnits="userSpaceOnUse">
<stop stop-color="#00CCFF"/>
<stop offset="0.57" stop-color="#1CD2E6"/>
<stop offset="0.8" stop-color="#58DEB1"/>
<stop offset="1" stop-color="#91E97E"/>
</linearGradient>
</defs>
</svg>
