<svg width="24" height="24" viewBox="0 0 24 24" fill="none" xmlns="http://www.w3.org/2000/svg">
<g clip-path="url(#clip0_361_236)">
<path d="M9.25 9.25L14.75 14.75M14.75 9.25L9.25 14.75M23 12C23 13.4445 22.7155 14.8749 22.1627 16.2095C21.6099 17.5441 20.7996 18.7567 19.7782 19.7782C18.7567 20.7996 17.5441 21.6099 16.2095 22.1627C14.8749 22.7155 13.4445 23 12 23C10.5555 23 9.12506 22.7155 7.79048 22.1627C6.4559 21.6099 5.24327 20.7996 4.22183 19.7782C3.20038 18.7567 2.39013 17.5441 1.83733 16.2095C1.28452 14.8749 1 13.4445 1 12C1 9.08262 2.15893 6.28473 4.22183 4.22183C6.28473 2.15893 9.08262 1 12 1C14.9174 1 17.7153 2.15893 19.7782 4.22183C21.8411 6.28473 23 9.08262 23 12Z" stroke="url(#paint0_linear_361_236)" stroke-width="1.5" stroke-linecap="round" stroke-linejoin="round"/>
</g>
<defs>
<linearGradient id="paint0_linear_361_236" x1="1" y1="12" x2="23" y2="12" gradientUnits="userSpaceOnUse">
<stop stop-color="#FF4D4D"/>
<stop offset="0.57" stop-color="#FF5E5E"/>
<stop offset="0.8" stop-color="#FFBE78"/>
<stop offset="1" stop-color="#FFC3A0"/>
</linearGradient>
<clipPath id="clip0_361_236">
<rect width="24" height="24" fill="white"/>
</clipPath>
</defs>
</svg>
