<svg width="40" height="40" viewBox="0 0 40 40" fill="none" xmlns="http://www.w3.org/2000/svg">
<g clip-path="url(#clip0_378_64)">
<path fill-rule="evenodd" clip-rule="evenodd" d="M10 2.68C10.2433 2.53833 10.5133 2.44667 10.7917 2.41C11.0717 2.37333 11.355 2.39167 11.6267 2.465C11.8983 2.53667 12.1533 2.66333 12.3767 2.835C12.6 3.005 12.7883 3.21833 12.9283 3.46333L14.7917 6.695C15.795 6.30167 16.8167 6.02833 17.8567 5.87167V2.14333C17.8567 1.575 18.0833 1.03 18.485 0.628333C18.8867 0.225 19.4317 0 20 0C20.5683 0 21.1133 0.225 21.515 0.628333C21.9167 1.03 22.1433 1.575 22.1433 2.14333V5.875C23.1917 6.03333 24.2183 6.31 25.205 6.69667L27.075 3.46333C27.21 3.20833 27.395 2.985 27.6183 2.80333C27.8417 2.62333 28.1 2.48833 28.3767 2.41C28.6533 2.33 28.9417 2.30833 29.2283 2.34333C29.5133 2.37833 29.7883 2.47 30.0383 2.615C30.2867 2.75833 30.505 2.95167 30.6767 3.18167C30.85 3.41 30.975 3.67333 31.045 3.95167C31.115 4.23167 31.1267 4.52167 31.0817 4.805C31.0367 5.09 30.935 5.36167 30.7833 5.605L28.92 8.835C29.7383 9.49167 30.4867 10.24 31.1633 11.08L34.3917 9.215C34.635 9.07333 34.905 8.98167 35.1833 8.945C35.4633 8.90833 35.7467 8.92833 36.0183 9C36.29 9.07333 36.545 9.2 36.7683 9.37167C36.9917 9.54167 37.18 9.75667 37.32 10C37.46 10.2433 37.5517 10.5133 37.5883 10.7917C37.625 11.0717 37.6067 11.355 37.5333 11.6267C37.46 11.8983 37.335 12.1533 37.1633 12.3767C36.9917 12.6 36.7783 12.7883 36.535 12.9283L33.305 14.7917C33.6983 15.795 33.9717 16.8167 34.1283 17.8567H37.8567C38.425 17.8567 38.97 18.0833 39.3717 18.485C39.775 18.8867 40 19.4317 40 20C40 20.5683 39.775 21.1133 39.3717 21.515C38.97 21.9167 38.425 22.1433 37.8567 22.1433H34.125C33.9667 23.1917 33.69 24.2183 33.3033 25.205L36.5367 27.075C37.0083 27.3683 37.3467 27.835 37.4817 28.3733C37.615 28.9133 37.535 29.4833 37.2567 29.9633C36.9783 30.445 36.525 30.7983 35.9917 30.9517C35.4567 31.105 34.885 31.0433 34.395 30.7833L31.165 28.92C30.5083 29.7383 29.76 30.4867 28.92 31.1633L30.7833 34.3917C31.0433 34.8817 31.105 35.455 30.9517 35.9883C30.7983 36.5217 30.445 36.9767 29.9633 37.2533C29.4833 37.5317 28.9133 37.6117 28.3733 37.4783C27.835 37.3433 27.3683 37.005 27.075 36.535L25.2083 33.305C24.205 33.6983 23.1833 33.9717 22.1433 34.1283V37.8567C22.1433 38.425 21.9167 38.97 21.515 39.3717C21.1133 39.775 20.5683 40 20 40C19.4317 40 18.8867 39.775 18.485 39.3717C18.0833 38.97 17.8567 38.425 17.8567 37.8567V34.125C16.8083 33.9667 15.7817 33.69 14.795 33.3033L12.9283 36.5367C12.645 37.03 12.1767 37.3883 11.6267 37.5367C11.0783 37.6833 10.4933 37.6067 10 37.3233C9.50667 37.0383 9.14833 36.57 9 36.0217C8.85333 35.4717 8.93 34.8867 9.215 34.395L11.08 31.165C10.2517 30.5033 9.49833 29.75 8.83667 28.92L5.60833 30.7833C5.11833 31.0433 4.545 31.105 4.01167 30.9517C3.47833 30.7983 3.02333 30.445 2.74667 29.9633C2.46833 29.4833 2.38833 28.9133 2.52167 28.3733C2.65667 27.835 2.995 27.3683 3.465 27.075L6.695 25.2083C6.30667 24.22 6.03167 23.1917 5.87167 22.1433H2.14333C1.575 22.1433 1.03 21.9167 0.628333 21.515C0.225 21.1133 0 20.5683 0 20C0 19.4317 0.225 18.8867 0.628333 18.485C1.03 18.0833 1.575 17.8567 2.14333 17.8567H5.875C6.03333 16.8083 6.31 15.7817 6.69667 14.795L3.46333 12.9283C2.97 12.645 2.61 12.1767 2.46333 11.6267C2.31667 11.0783 2.39333 10.4933 2.67667 10C2.96167 9.50667 3.43 9.14833 3.97833 9C4.52833 8.85333 5.11333 8.93 5.605 9.215L8.835 11.08C9.49167 10.2617 10.24 9.51333 11.08 8.83667L9.215 5.60833C9.07333 5.365 8.98167 5.095 8.945 4.815C8.90667 4.53667 8.925 4.25167 8.99833 3.98C9.07167 3.70667 9.19833 3.45167 9.37 3.22833C9.54167 3.005 9.755 2.82 10 2.68ZM13.2567 12.6083C12.23 13.545 11.4083 14.6867 10.8467 15.9583C10.285 17.2317 9.995 18.6067 9.995 19.9967C9.995 21.3883 10.285 22.7633 10.8467 24.035C11.4083 25.3083 12.23 26.4483 13.2567 27.385L17.5283 20L13.2567 12.6083ZM21.24 22.1433L16.9717 29.5317C18.2967 29.9517 19.695 30.0917 21.0783 29.9417C22.46 29.7917 23.7967 29.355 25 28.66C26.205 27.965 27.25 27.0267 28.0717 25.905C28.8933 24.7817 29.47 23.5017 29.7683 22.1433H21.24ZM29.775 17.8567H21.2367L16.9717 10.4683C18.2967 10.0467 19.695 9.90667 21.0783 10.0567C22.4617 10.205 23.7983 10.6417 25.0017 11.3367C26.2067 12.0333 27.2533 12.9717 28.075 14.095C28.895 15.2167 29.4767 16.4983 29.775 17.8567Z" fill="url(#paint0_linear_378_64)"/>
</g>
<defs>
<linearGradient id="paint0_linear_378_64" x1="0" y1="20" x2="40" y2="20" gradientUnits="userSpaceOnUse">
<stop stop-color="#00CCFF"/>
<stop offset="0.28" stop-color="#00CCFF"/>
<stop offset="0.57" stop-color="#1CD2E6"/>
<stop offset="0.8" stop-color="#58DEB1"/>
<stop offset="1" stop-color="#91E97E"/>
</linearGradient>
<clipPath id="clip0_378_64">
<rect width="40" height="40" fill="white"/>
</clipPath>
</defs>
</svg>
