<?xml version="1.0" encoding="UTF-8" standalone="no"?><!DOCTYPE svg PUBLIC "-//W3C//DTD SVG 1.1//EN" "http://www.w3.org/Graphics/SVG/1.1/DTD/svg11.dtd"><svg width="100%" height="100%" viewBox="0 0 40 40" version="1.1" xmlns="http://www.w3.org/2000/svg" xmlns:xlink="http://www.w3.org/1999/xlink" xml:space="preserve" xmlns:serif="http://www.serif.com/" style="fill-rule:evenodd;clip-rule:evenodd;stroke-linejoin:round;stroke-miterlimit:2;"><g><clipPath id="_clip1"><rect x="0" y="0" width="40" height="40"/></clipPath><g clip-path="url(#_clip1)"><path d="M17.498,3.741c-3.646,-0 -7.143,1.448 -9.721,4.027c-2.579,2.578 -4.027,6.075 -4.027,9.721c-0,3.647 1.448,7.144 4.027,9.722c2.578,2.578 6.075,4.028 9.721,4.028c3.647,0 7.144,-1.45 9.724,-4.028c2.578,-2.578 4.026,-6.075 4.026,-9.722c0,-3.646 -1.448,-7.143 -4.026,-9.721c-2.58,-2.579 -6.077,-4.027 -9.724,-4.027Zm-17.498,13.748c0,-2.798 0.672,-5.555 1.957,-8.04c1.286,-2.485 3.15,-4.625 5.433,-6.241c2.285,-1.617 4.923,-2.662 7.695,-3.049c2.77,-0.385 5.595,-0.101 8.233,0.829c2.639,0.931 5.017,2.481 6.932,4.52c1.917,2.04 3.317,4.508 4.082,7.2c0.765,2.691 0.873,5.526 0.315,8.268c-0.557,2.743 -1.764,5.312 -3.519,7.49l8.319,8.322c0.185,0.171 0.333,0.38 0.435,0.61c0.103,0.23 0.158,0.478 0.161,0.73c0.005,0.251 -0.041,0.501 -0.135,0.735c-0.095,0.233 -0.235,0.445 -0.413,0.623c-0.178,0.178 -0.39,0.318 -0.623,0.412c-0.234,0.095 -0.484,0.141 -0.735,0.136c-0.252,-0.005 -0.5,-0.06 -0.73,-0.161c-0.23,-0.102 -0.437,-0.25 -0.61,-0.435l-8.322,-8.319c-2.57,2.07 -5.675,3.372 -8.953,3.754c-3.28,0.381 -6.6,-0.174 -9.577,-1.599c-2.978,-1.425 -5.492,-3.663 -7.252,-6.456c-1.76,-2.794 -2.693,-6.027 -2.693,-9.329Z" style="fill:#151c24;"/></g></g></svg>