<svg width="40" height="40" viewBox="0 0 40 40" fill="none" xmlns="http://www.w3.org/2000/svg">
<g clip-path="url(#clip0_378_60)">
<path fill-rule="evenodd" clip-rule="evenodd" d="M17.4983 3.74096C13.8517 3.74096 10.355 5.18929 7.77667 7.76762C5.19833 10.346 3.75 13.8426 3.75 17.4893C3.75 21.136 5.19833 24.6326 7.77667 27.211C10.355 29.7893 13.8517 31.2393 17.4983 31.2393C21.145 31.2393 24.6417 29.7893 27.2217 27.211C29.8 24.6326 31.2483 21.136 31.2483 17.4893C31.2483 13.8426 29.8 10.346 27.2217 7.76762C24.6417 5.18929 21.145 3.74096 17.4983 3.74096ZM0 17.4893C0 14.691 0.671667 11.9343 1.95667 9.44929C3.24333 6.96429 5.10667 4.82429 7.39 3.20762C9.675 1.59096 12.3133 0.545957 15.085 0.15929C17.855 -0.22571 20.68 0.0576236 23.3183 0.987624C25.9567 1.91929 28.335 3.46929 30.25 5.50762C32.1667 7.54762 33.5667 10.016 34.3317 12.7076C35.0967 15.3993 35.205 18.2343 34.6467 20.976C34.09 23.7193 32.8833 26.2876 31.1283 28.466L39.4467 36.7876C39.6317 36.9593 39.78 37.1676 39.8817 37.3976C39.985 37.6276 40.04 37.876 40.0433 38.1276C40.0483 38.3793 40.0017 38.6293 39.9083 38.8626C39.8133 39.096 39.6733 39.3076 39.495 39.486C39.3167 39.6643 39.105 39.8043 38.8717 39.8976C38.6383 39.9926 38.3883 40.0393 38.1367 40.0343C37.885 40.0293 37.6367 39.9743 37.4067 39.8726C37.1767 39.771 36.97 39.6226 36.7967 39.4376L28.475 31.1193C25.905 33.1893 22.8 34.491 19.5217 34.8726C16.2417 35.2543 12.9217 34.6993 9.945 33.2743C6.96667 31.8493 4.45333 29.611 2.69333 26.8176C0.933333 24.0243 0 20.791 0 17.4893Z" fill="url(#paint0_linear_378_60)"/>
</g>
<defs>
<linearGradient id="paint0_linear_378_60" x1="0" y1="20.0136" x2="40.044" y2="20.0136" gradientUnits="userSpaceOnUse">
<stop stop-color="#00CCFF"/>
<stop offset="0.28" stop-color="#00CCFF"/>
<stop offset="0.57" stop-color="#1CD2E6"/>
<stop offset="0.8" stop-color="#58DEB1"/>
<stop offset="1" stop-color="#91E97E"/>
</linearGradient>
<clipPath id="clip0_378_60">
<rect width="40" height="40" fill="white"/>
</clipPath>
</defs>
</svg>
