<svg width="40" height="40" viewBox="0 0 40 40" fill="none" xmlns="http://www.w3.org/2000/svg">
<path d="M20 35C23.325 34.9998 26.5558 33.8953 29.1851 31.86C31.8143 29.8247 33.6932 26.9738 34.5267 23.755M20 35C16.675 34.9998 13.4442 33.8953 10.815 31.86C8.18568 29.8247 6.3068 26.9738 5.47334 23.755M20 35C24.1417 35 27.5 28.2833 27.5 20C27.5 11.7167 24.1417 5 20 5M20 35C15.8583 35 12.5 28.2833 12.5 20C12.5 11.7167 15.8583 5 20 5M34.5267 23.755C34.835 22.555 35 21.2967 35 20C35.0041 17.4202 34.3398 14.8833 33.0717 12.6367M34.5267 23.755C30.082 26.219 25.082 27.508 20 27.5C14.73 27.5 9.77834 26.1417 5.47334 23.755M5.47334 23.755C5.15792 22.5283 4.99888 21.2666 5.00001 20C5.00001 17.325 5.70001 14.8117 6.92834 12.6367M20 5C22.6604 4.99889 25.2732 5.7056 27.5703 7.04761C29.8674 8.38962 31.7662 10.3186 33.0717 12.6367M20 5C17.3396 4.99889 14.7268 5.7056 12.4297 7.04761C10.1326 8.38962 8.23385 10.3186 6.92834 12.6367M33.0717 12.6367C29.4428 15.7799 24.8009 17.5069 20 17.5C15.0033 17.5 10.4333 15.6667 6.92834 12.6367" stroke="url(#paint0_linear_303_65)" stroke-width="3" stroke-linecap="round" stroke-linejoin="round"/>
<defs>
<linearGradient id="paint0_linear_303_65" x1="-8.15795" y1="21.8421" x2="38.1675" y2="21.8421" gradientUnits="userSpaceOnUse">
<stop stop-color="#00CCFF"/>
<stop offset="0.57" stop-color="#1CD2E6"/>
<stop offset="0.8" stop-color="#58DEB1"/>
<stop offset="1" stop-color="#91E97E"/>
</linearGradient>
</defs>
</svg>
